<?xml version="1.0" encoding="utf-8"?>
<!-- Generator: Adobe Illustrator 20.0.0, SVG Export Plug-In . SVG Version: 6.00 Build 0)  -->
<svg version="1.1" id="Layer_1" xmlns="http://www.w3.org/2000/svg" xmlns:xlink="http://www.w3.org/1999/xlink" x="0px" y="0px"
	 viewBox="0 0 800 414.8" style="enable-background:new 0 0 800 414.8;" xml:space="preserve">
<style type="text/css">
	.st0{fill:#FFFFFF;}
	.st1{fill-rule:evenodd;clip-rule:evenodd;fill:#FFFFFF;}
</style>
<g>
	<g>
		<path class="st0" d="M253.1,327.9c-66.5,0-120.5-54.1-120.5-120.5c0-66.5,54.1-120.5,120.5-120.5c66.5,0,120.5,54.1,120.5,120.5
			C373.6,273.9,319.6,327.9,253.1,327.9z M253.1,95.9c-61.5,0-111.5,50-111.5,111.5s50,111.5,111.5,111.5
			c61.5,0,111.5-50,111.5-111.5S314.6,95.9,253.1,95.9z"/>
		<path class="st0" d="M546.9,327.9c-66.5,0-120.5-54.1-120.5-120.5c0-66.5,54.1-120.5,120.5-120.5s120.5,54.1,120.5,120.5
			C667.4,273.9,613.3,327.9,546.9,327.9z M546.9,95.9c-61.5,0-111.5,50-111.5,111.5s50,111.5,111.5,111.5s111.5-50,111.5-111.5
			S608.4,95.9,546.9,95.9z"/>
		<path class="st0" d="M269.4,169h10v-17c-1.7-0.2-7.7-0.7-14.6-0.7c-14.5,0-24.4,8.8-24.4,25.1v14H224v19h16.4V258h19.6v-48.7h16.3
			l2.5-19h-18.8v-12.1C259.9,172.8,261.5,169,269.4,169z"/>
		<path class="st1" d="M574.3,161.5c1,0,2,0,3.1,0c4.9,0.4,9.4,2.3,12.5,4.7c0.7,0.6,2.3,2.5,3.2,2.6c1.1,0.1,2.9-0.7,4-1
			c3.9-1.2,7.4-2.8,10.4-4.4c-1.1,3.4-2.8,6.1-5,8.4c-0.5,0.4-0.9,0.8-1.3,1.3c-0.1,0.1-0.3,0.2-0.3,0.3c-0.7,0.7-1.8,1.4-2.6,2
			c-0.2,0.2-0.8,0.4-0.6,0.6c4.8-0.6,9-1.9,12.8-3.6c-1.4,2.5-3.3,4.5-5.2,6.6c-0.4,0.4-0.8,0.8-1.2,1.2c-0.7,0.5-1.4,1.4-2.5,2.3
			c-1.1,0.9-3,1.4-2.6,3.4c0,1,0,2.1,0,3.1c-1,20.5-8.8,34.2-19.1,45.4c-0.5,0.4-0.9,0.8-1.3,1.3c-10.2,9.7-23.2,16.7-42.2,17.8
			c-0.4,0-0.9,0-1.4,0c-1.2,0-2.5,0-3.8,0c-0.4,0-0.8,0-1.3,0c-13.4-0.7-24-4.8-32.3-10.3c1,0.1,1.9,0.2,3.1,0.2
			c0.5,0.2,1.4,0,2,0.1c0.2,0,0.4,0,0.6,0c0.6-0.1,1.4,0.1,1.9-0.1c10.7-0.5,19-4.2,25.3-8.9c0.4-0.3,1.1-0.6,1-0.9
			c-6.5-0.3-11-2.6-14.6-5.7c0-0.1-0.1-0.2-0.2-0.2c-0.5-0.6-1.1-1.2-1.8-1.8c-2.1-2.3-3.8-5-4.8-8.4c1,0.1,1.9,0.4,3.1,0.3
			c0.6,0.2,2,0.2,2.6,0c1.8,0,3.4-0.2,4.7-0.8c-10.7-2.7-17.2-9.5-18.5-21.6c0.1-0.4-0.1-1.1,0.1-1.3c2.8,1.5,5.8,2.7,10,2.8
			c-5-3.9-9.4-9.3-9.9-18c0-0.8,0-1.7,0-2.5c0.2-3,0.9-5.9,1.9-8.3c0.2-0.4,1-2.2,1.2-2.2c0.1,0,0.8,0.9,1,1.1c1.1,1.2,2,2.2,3,3.3
			c0.4,0.4,0.7,0.8,1.2,1.2c10.5,9.9,23.5,17.4,42.7,18.7c-1.9-8.6,1.2-16.5,5.4-20.9c0.6-0.6,1.1-1.1,1.7-1.7
			C563.8,164.3,568.3,162.1,574.3,161.5z"/>
	</g>
</g>
</svg>
