<?xml version="1.0" encoding="utf-8"?>
<!-- Generator: Adobe Illustrator 20.0.0, SVG Export Plug-In . SVG Version: 6.00 Build 0)  -->
<svg version="1.1" id="Layer_1" xmlns="http://www.w3.org/2000/svg" xmlns:xlink="http://www.w3.org/1999/xlink" x="0px" y="0px"
	 viewBox="0 0 800 414.8" style="enable-background:new 0 0 800 414.8;" xml:space="preserve">
<style type="text/css">
	.st0{fill:#FFFFFF;}
</style>
<g>
	<path class="st0" d="M305.4,219.6c6.8,0,12.4,5.6,12.4,12.4v85.1c0,6.8-5.6,12.4-12.4,12.4h-85.1c-6.8,0-12.4-5.6-12.4-12.4V232
		c0-6.8,5.6-12.4,12.4-12.4H305.4 M305.4,210.7h-85.1c-11.7,0-21.3,9.6-21.3,21.3v85.1c0,11.7,9.6,21.3,21.3,21.3h85.1
		c11.7,0,21.3-9.6,21.3-21.3V232C326.7,220.3,317.1,210.7,305.4,210.7L305.4,210.7z"/>
	<path class="st0" d="M442.6,219.6c6.8,0,12.4,5.6,12.4,12.4v85.1c0,6.8-5.6,12.4-12.4,12.4h-85.1c-6.8,0-12.4-5.6-12.4-12.4V232
		c0-6.8,5.6-12.4,12.4-12.4H442.6 M442.6,210.7h-85.1c-11.7,0-21.3,9.6-21.3,21.3v85.1c0,11.7,9.6,21.3,21.3,21.3h85.1
		c11.7,0,21.3-9.6,21.3-21.3V232C463.9,220.3,454.3,210.7,442.6,210.7L442.6,210.7z"/>
	<path class="st0" d="M442.6,82.4c6.8,0,12.4,5.6,12.4,12.4V180c0,6.8-5.6,12.4-12.4,12.4h-85.1c-6.8,0-12.4-5.6-12.4-12.4V94.8
		c0-6.8,5.6-12.4,12.4-12.4H442.6 M442.6,73.5h-85.1c-11.7,0-21.3,9.6-21.3,21.3V180c0,11.7,9.6,21.3,21.3,21.3h85.1
		c11.7,0,21.3-9.6,21.3-21.3V94.8C463.9,83.1,454.3,73.5,442.6,73.5L442.6,73.5z"/>
	<path class="st0" d="M579.7,219.6c6.8,0,12.4,5.6,12.4,12.4v85.1c0,6.8-5.6,12.4-12.4,12.4h-85.1c-6.8,0-12.4-5.6-12.4-12.4V232
		c0-6.8,5.6-12.4,12.4-12.4H579.7 M579.7,210.7h-85.1c-11.7,0-21.3,9.6-21.3,21.3v85.1c0,11.7,9.6,21.3,21.3,21.3h85.1
		c11.7,0,21.3-9.6,21.3-21.3V232C601,220.3,591.4,210.7,579.7,210.7L579.7,210.7z"/>
	<polygon class="st0" points="414.9,134.1 400,109.2 385.1,134.1 397,134.1 397,165.6 403,165.6 403,134.1 	"/>
	<polygon class="st0" points="385.1,277.9 400,302.8 414.9,277.9 403,277.9 403,246.3 397,246.3 397,277.9 	"/>
	<polygon class="st0" points="259.5,259.7 234.6,274.6 259.5,289.5 259.5,277.5 291.1,277.5 291.1,271.6 259.5,271.6 	"/>
	<polygon class="st0" points="540.5,289.5 565.4,274.6 540.5,259.7 540.5,271.6 508.9,271.6 508.9,277.5 540.5,277.5 	"/>
</g>
</svg>
