<?xml version="1.0" encoding="utf-8"?>
<!-- Generator: Adobe Illustrator 20.0.0, SVG Export Plug-In . SVG Version: 6.00 Build 0)  -->
<svg version="1.1" id="Layer_1" xmlns="http://www.w3.org/2000/svg" xmlns:xlink="http://www.w3.org/1999/xlink" x="0px" y="0px"
	 viewBox="0 0 800 414.8" style="enable-background:new 0 0 800 414.8;" xml:space="preserve">
<style type="text/css">
	.st0{fill-rule:evenodd;clip-rule:evenodd;fill:#F1CBC8;}
	.st1{fill-rule:evenodd;clip-rule:evenodd;fill:#D47C71;}
	.st2{fill-rule:evenodd;clip-rule:evenodd;fill:#E76457;}
	.st3{fill-rule:evenodd;clip-rule:evenodd;fill:#231F20;}
</style>
<g>
	<path class="st0" d="M406.3,61.5c67.9,0,127.2,56.6,127.2,111c0,54.3-55.4,98.6-123.3,98.6c-67.9,0-123.3-44.3-123.3-98.6
		C286.9,118.1,338.4,61.5,406.3,61.5L406.3,61.5z"/>
	<path class="st1" d="M349.4,141.8c11.4,0,20.7,8.3,20.7,18.4c0,10.1-9.3,18.4-20.7,18.4c-11.4,0-20.7-8.3-20.7-18.4
		C328.7,150.1,338,141.8,349.4,141.8L349.4,141.8z"/>
	<path class="st1" d="M468.2,143.9c11.4,0,20.7,8.3,20.7,18.4c0,10.1-9.3,18.4-20.7,18.4c-11.4,0-20.7-8.3-20.7-18.4
		C447.5,152.2,456.8,143.9,468.2,143.9L468.2,143.9z"/>
	<path class="st2" d="M650.4,129.5c-39.3-13-76.8-7.3-84.7,16.6c-7.9,23.8,11.5,56.4,50.8,69.4c39.3,13,83,4.8,90.9-19
		C715.3,172.6,689.7,142.5,650.4,129.5L650.4,129.5z"/>
	<path class="st2" d="M153.9,138.1c-40,10.6-68.3,35.9-61.9,60.1c6.4,24.3,40.4,40.9,80.5,30.4c40-10.6,72.2-41.3,65.7-65.6
		C231.9,138.8,194,127.6,153.9,138.1L153.9,138.1z"/>
	<path class="st3" d="M411.4,337.7c52.1,4.1,84.6,39.1,69.8,47c-14.8,7.9-20.4-22.1-67.5-28.7c-47.1-6.6-62,21.3-72.4,16.6
		C330.8,367.8,359.2,333.6,411.4,337.7L411.4,337.7z"/>
	<path class="st3" d="M283.7,30.9c15.6,4.4,24.1,23.2,18.9,41.9c-5.2,18.7-22.2,30.4-37.9,26c-15.6-4.4-24.1-23.2-18.9-41.9
		C251,38.2,268.1,26.5,283.7,30.9L283.7,30.9z"/>
	<path class="st3" d="M530.2,29.7c-15.6,4.4-24.1,23.2-18.9,41.9c5.2,18.7,22.2,30.4,37.9,26c15.6-4.4,24.1-23.2,18.9-41.9
		C562.9,37,545.8,25.3,530.2,29.7L530.2,29.7z"/>
</g>
</svg>
