<?xml version="1.0" encoding="utf-8"?>
<!-- Generator: Adobe Illustrator 20.0.0, SVG Export Plug-In . SVG Version: 6.00 Build 0)  -->
<svg version="1.1" id="Layer_1" xmlns="http://www.w3.org/2000/svg" xmlns:xlink="http://www.w3.org/1999/xlink" x="0px" y="0px"
	 viewBox="0 0 800 414.8" style="enable-background:new 0 0 800 414.8;" xml:space="preserve">
<style type="text/css">
	.st0{fill:#231F20;}
	.st1{fill-rule:evenodd;clip-rule:evenodd;fill:#F1CBC8;}
	.st2{fill-rule:evenodd;clip-rule:evenodd;fill:#D47C71;}
	.st3{fill-rule:evenodd;clip-rule:evenodd;fill:#E76457;}
	.st4{fill-rule:evenodd;clip-rule:evenodd;fill:#231F20;}
</style>
<g>
	<path class="st0" d="M249.9,83.4c-0.8,3.6-4.3,5.8-7.9,5.1c-3.6-0.8-5.9-4.3-5.1-7.9c3.5-16.1,15.1-32,30.5-37.7
		c15.6-6.3,31.2-0.6,42.5,10.2c2.7,2.5,2.8,6.7,0.3,9.4c-2.5,2.7-6.7,2.8-9.4,0.2c-8.7-6.2-18.3-7-27.7-3.9
		C262.1,63,254.1,72.9,249.9,83.4L249.9,83.4z"/>
	<path class="st0" d="M539.3,65.4c1.3,3.4,5.2,5.1,8.6,3.7c3.4-1.3,5.1-5.2,3.7-8.6c-6.1-15.4-20.1-29.1-36.2-32.3
		c-16.4-3.7-30.9,4.4-40.3,16.9c-2.2,2.9-1.6,7.1,1.3,9.3c2.9,2.2,7.1,1.6,9.3-1.3c7.5-7.5,16.9-9.9,26.8-8.3
		C524.1,47.2,533.5,55.7,539.3,65.4L539.3,65.4z"/>
	<path class="st1" d="M407.1,67.1c65.7-5.3,127.6,44.8,131.8,97.4c4.3,52.6-45.8,99.8-111.5,105.2c-65.7,5.3-122.8-33.2-127.1-85.7
		C296.1,131.3,341.4,72.4,407.1,67.1L407.1,67.1z"/>
	<path class="st2" d="M358.4,149.3c11-0.9,20.7,6.4,21.5,16.2c0.8,9.8-7.6,18.6-18.6,19.5c-11,0.9-20.7-6.4-21.5-16.2
		C339,159,347.3,150.2,358.4,149.3L358.4,149.3z"/>
	<path class="st2" d="M473.5,142c11-0.9,20.7,6.4,21.5,16.2c0.8,9.8-7.5,18.5-18.6,19.5c-11,0.9-20.7-6.4-21.5-16.2
		C454.1,151.7,462.4,142.9,473.5,142L473.5,142z"/>
	<path class="st3" d="M648.7,113.7c-39.1-9.5-74.9-1-80.7,22.7c-5.8,23.7,15.6,53.6,54.6,63.1c39.1,9.5,80.7-1.9,86.5-25.6
		C714.9,150.3,687.8,123.2,648.7,113.7L648.7,113.7z"/>
	<path class="st3" d="M168.9,161.1c-37.9,13.4-63.3,40.1-55.1,63.1c8.1,23,42.3,36.4,80.2,23c37.9-13.4,66.6-45.7,58.5-68.7
		C244.4,155.6,206.8,147.8,168.9,161.1L168.9,161.1z"/>
	<path class="st4" d="M443.1,393.9c66.3-9.4,96.1-69.7,82.4-77.5c-13.7-7.9-22.2,47.9-81.7,61.1c-59.4,13.2-83.3-42.2-96-34
		C335.1,351.7,376.8,403.2,443.1,393.9L443.1,393.9z"/>
</g>
</svg>
